<svg width="40" height="40" viewBox="0 0 40 40" fill="none" xmlns="http://www.w3.org/2000/svg">
<path fill-rule="evenodd" clip-rule="evenodd" d="M4 16.6201C4 9.65758 9.78915 4 16.9136 4C24.038 4 29.8272 9.65758 29.8272 16.6201C29.8272 19.7548 28.658 22.6227 26.7174 24.8324L35.5011 33.437C36.1 34.0238 36.0994 34.9882 35.4998 35.5742C34.9193 36.1414 33.9923 36.142 33.4112 35.5754L24.4623 26.8507C22.3378 28.3528 19.7325 29.2402 16.9136 29.2402C9.78915 29.2402 4 23.5826 4 16.6201ZM16.8932 27.5519C23.0647 27.5519 28.0676 22.6644 28.0676 16.6353C28.0676 10.6063 23.0647 5.71875 16.8932 5.71875C10.7217 5.71875 5.71875 10.6063 5.71875 16.6353C5.71875 22.6644 10.7217 27.5519 16.8932 27.5519Z" fill="black"/>
</svg>
