<svg width="1600" height="1183" viewBox="0 0 1600 1183" fill="none" xmlns="http://www.w3.org/2000/svg">
<g clip-path="url(#clip0)">
<rect width="1600" height="1183" fill="white"/>
<rect width="2000" height="1183" fill="#EEE8DD"/>
<path fill-rule="evenodd" clip-rule="evenodd" d="M1068.5 826.931V605.5H1071.5V823.997L1068.5 826.931ZM1146.19 750.95V605.5H1143.19V753.884L1146.19 750.95ZM1131.02 765.787V605.5H1128.02V768.721L1131.02 765.787ZM1115.85 780.625V605.5H1112.85V783.559L1115.85 780.625ZM1101.84 794.322V605.5H1098.84V797.256L1101.84 794.322ZM1086.67 809.159V605.5H1083.67V812.093L1086.67 809.159Z" fill="#B6996A"/>
<path d="M1602.16 195C1492.99 195 1306.94 218.932 1186.85 338.215C1092.07 432.349 1070 546.149 1070 605.789" stroke="#B6996A" stroke-width="3"/>
<path d="M1601.87 208.422C1496.01 208.422 1314.93 231.572 1198.48 346.958C1106.57 438.017 1085.17 548.099 1085.17 605.79" stroke="#B6996A" stroke-width="3"/>
<path d="M1601.87 222.426C1499.31 222.426 1322.92 244.76 1210.11 356.079C1121.08 443.929 1100.34 550.132 1100.34 605.79" stroke="#B6996A" stroke-width="3"/>
<path d="M1602.45 237.598C1499.9 237.598 1336.93 255.201 1224.11 363.302C1135.08 448.611 1114.35 551.742 1114.35 605.791" stroke="#B6996A" stroke-width="3"/>
<path d="M1602.16 252.766C1502.95 252.766 1344.84 269.644 1235.7 373.29C1149.58 455.084 1129.52 553.966 1129.52 605.788" stroke="#B6996A" stroke-width="3"/>
<path d="M1602.16 267.355C1506.36 267.355 1352.62 283.536 1247.23 382.899C1164.06 461.314 1144.69 556.109 1144.69 605.79" stroke="#B6996A" stroke-width="3"/>
<path fill-rule="evenodd" clip-rule="evenodd" d="M590 751.5H1069.65V748.5H590V751.5ZM590 766.5H1069.65V763.5H590V766.5ZM1069.65 781.5H590V778.5H1069.65V781.5ZM590 796.5H1069.65V793.5H590V796.5ZM1069.65 811.5H590V808.5H1069.65V811.5ZM590 826.5H1069.65V823.5H590V826.5Z" fill="#B6996A"/>
<path fill-rule="evenodd" clip-rule="evenodd" d="M588 915.305V915.305H591V915.305H588ZM588 916.499V1185H591V919.462L588 916.499ZM603 931.313V1184.5H606V934.276L603 931.313ZM618 946.127V1184.5H621V949.09L618 946.127ZM621 915.305H618V915.305L621 915.305ZM633 960.941L636 963.904V1184.5H633V960.941ZM647.518 975.278L650.518 978.241V1184.3H647.518V975.278ZM662 989.581L662 1184.3H665L665 992.544L662 989.581ZM606 915.305H603V915.305H606V915.305Z" fill="#B6996A"/>
<path d="M588 992.594C530.266 992.594 289.235 992.594 230.094 992.594C156.166 992.594 117 940.72 117 870.336C117 795.893 167.256 750.002 230.094 750.002C280.364 750.002 566.614 750.002 633.5 750.002" stroke="#B6996A" stroke-width="3.00734"/>
<path d="M589 977C537.464 977 286.747 977 233.954 977C167.962 977 133 931.668 133 870.16C133 805.104 177.861 765.5 233.954 765.5C278.828 765.5 574.793 765 634.5 765" stroke="#B6996A" stroke-width="3"/>
<path d="M588.5 962C543.353 962 285.686 962 239.438 962C181.628 962 151 923.083 151 870.278C151 814.429 190.799 780.5 239.938 780.5C279.249 780.5 583.195 780 635.5 780" stroke="#B6996A" stroke-width="3"/>
<path d="M589 948C550.322 948 284.386 948 244.765 948C195.239 948 169 915.07 169 870.389C169 823.132 202.668 794.5 244.765 794.5C278.443 794.5 591.691 795 636.5 795" stroke="#B6996A" stroke-width="3"/>
<path d="M588.5 918C563.322 918 278.112 918 252.32 918C220.08 918 203 898.017 203 870.904C203 842.227 224.916 824.5 252.32 824.5C274.243 824.5 609.331 825 638.5 825" stroke="#B6996A" stroke-width="2.98605"/>
<path d="M589 933C557.149 933 282.021 933 249.393 933C208.608 933 187 906.543 187 870.644C187 832.675 214.725 809.5 249.393 809.5C277.126 809.5 601.599 810 638.5 810" stroke="#B6996A" stroke-width="3"/>
</g>
<defs>
<clipPath id="clip0">
<rect width="1600" height="1183" fill="white"/>
</clipPath>
</defs>
</svg>
